<?xml version="1.0" standalone="no"?>
<!DOCTYPE svg PUBLIC "-//W3C//DTD SVG 20010904//EN"
 "http://www.w3.org/TR/2001/REC-SVG-20010904/DTD/svg10.dtd">
<svg version="1.0" xmlns="http://www.w3.org/2000/svg"
 width="500.000000pt" height="110.000000pt" viewBox="0 0 500.000000 110.000000"
 preserveAspectRatio="xMidYMid meet">

<g transform="translate(0.000000,110.000000) scale(0.100000,-0.100000)"
fill="#000000" stroke="none">
<path d="M822 768 c-55 -27 -90 -137 -71 -227 9 -42 20 -65 49 -93 l38 -38
159 0 c110 0 163 4 171 12 15 15 16 171 2 199 -10 17 -22 19 -138 19 -131 0
-152 -6 -152 -40 0 -37 33 -50 123 -50 86 0 87 0 87 -25 l0 -25 -114 0 c-111
0 -114 1 -131 26 -22 34 -23 106 -2 138 16 24 20 25 161 28 121 2 148 6 162
20 15 14 16 22 6 43 l-12 25 -157 -1 c-92 0 -167 -5 -181 -11z"/>
<path d="M3677 750 c-45 -39 -57 -86 -57 -219 0 -109 1 -112 25 -123 21 -9 28
-8 45 7 18 16 20 31 20 130 0 147 -3 145 156 145 126 0 164 11 164 49 0 36
-20 41 -172 41 l-147 0 -34 -30z"/>
<path d="M4154 762 c-86 -70 -94 -235 -14 -314 l38 -38 140 0 c152 0 170 6
158 54 -8 31 -29 36 -162 36 -110 0 -112 0 -130 27 -22 35 -23 103 0 137 16
25 19 26 131 26 131 0 165 9 165 43 0 43 -15 47 -164 47 -119 0 -144 -3 -162
-18z"/>
<path d="M1917 699 c-51 -12 -87 -32 -117 -64 -22 -23 -25 -37 -29 -111 -2
-71 0 -88 15 -105 43 -47 74 -11 74 87 0 73 1 75 33 94 57 35 157 23 189 -24
4 -6 8 -44 8 -84 0 -68 1 -73 26 -84 23 -11 29 -10 46 12 17 21 19 37 16 106
-3 71 -6 86 -28 110 -48 52 -156 82 -233 63z"/>
<path d="M1345 693 c-79 -20 -121 -133 -80 -213 31 -60 57 -70 176 -70 84 0
111 3 123 16 21 20 20 30 -4 54 -17 17 -33 20 -114 20 -102 0 -106 2 -106 59
0 46 14 51 141 51 135 0 129 6 129 -118 0 -67 2 -73 25 -84 47 -21 55 -1 55
143 0 117 -2 129 -19 139 -20 10 -287 12 -326 3z"/>
<path d="M2345 689 c-102 -29 -128 -183 -44 -254 29 -24 37 -25 144 -25 104 0
115 2 125 20 12 23 0 54 -26 64 -8 3 -53 6 -98 6 -91 0 -106 8 -106 55 0 50
12 55 142 55 l118 0 6 -26 c4 -14 4 -63 2 -109 -6 -122 -10 -125 -158 -125
-123 0 -140 -6 -140 -47 0 -35 29 -43 158 -43 107 0 122 2 153 23 57 38 71 81
77 237 6 186 12 180 -180 179 -79 0 -157 -5 -173 -10z"/>
<path d="M2866 690 c-81 -25 -119 -123 -80 -206 31 -65 53 -74 180 -74 103 0
114 2 124 20 12 23 0 54 -26 64 -8 3 -53 6 -98 6 -92 0 -106 8 -106 56 0 50
15 55 146 52 l119 -3 3 -93 c3 -88 4 -93 27 -104 21 -9 29 -8 45 7 18 16 20
31 20 132 0 156 4 153 -182 152 -79 0 -156 -5 -172 -9z"/>
<path d="M3740 591 c-12 -24 -4 -48 21 -61 24 -13 225 -13 250 0 21 12 25 50
7 68 -8 8 -54 12 -140 12 -115 0 -128 -2 -138 -19z"/>
</g>
</svg>
